<svg width="20" height="20" viewBox="0 0 20 20" fill="none" xmlns="http://www.w3.org/2000/svg">
<path fill-rule="evenodd" clip-rule="evenodd" d="M4.65834 2.29167C4.2349 2.29167 3.80245 2.46328 3.36345 2.89541L3.35872 2.90007L3.3539 2.90463C2.97493 3.26214 2.71255 3.65296 2.54827 4.0705L2.54698 4.0738C2.37846 4.49508 2.29167 4.9574 2.29167 5.45001C2.29167 6.2189 2.46889 7.04439 2.8423 7.93154C3.2209 8.82259 3.7457 9.73159 4.40632 10.6503C5.07792 11.5725 5.83127 12.4558 6.66699 13.2998C7.51128 14.1358 8.39509 14.8896 9.32684 15.5702C10.2425 16.2368 11.1598 16.7622 12.07 17.15C12.9656 17.5316 13.7905 17.7083 14.5417 17.7083C15.0457 17.7083 15.5053 17.6152 15.9263 17.4398L15.9297 17.4383C16.227 17.3165 16.5031 17.1447 16.7648 16.9151C16.8636 16.8284 16.9608 16.7331 17.0567 16.6284L17.3192 16.2966C17.4014 16.1747 17.4726 16.0483 17.5348 15.9164C17.6378 15.6986 17.6833 15.4813 17.6833 15.275C17.6833 15.1408 17.6566 15.0147 17.5991 14.8682C17.56 14.7833 17.4928 14.6968 17.3609 14.6055L17.3548 14.6013L14.6018 12.6468C14.419 12.5228 14.268 12.4398 14.1383 12.3868C14.0198 12.3383 13.9334 12.325 13.8667 12.325C13.7865 12.325 13.706 12.3443 13.6 12.4088L13.5823 12.4196L13.5641 12.4291C13.4491 12.4892 13.3 12.6006 13.1169 12.7836L13.114 12.7865L12.4818 13.4103C12.2796 13.6118 12.0154 13.7333 11.7 13.7333C11.5766 13.7333 11.4303 13.7194 11.2723 13.6602L11.2588 13.6552L11.2455 13.6495C11.2077 13.6333 11.1728 13.6172 11.15 13.6067C11.123 13.5943 11.1138 13.5903 11.1096 13.5887L11.0787 13.5763L11.0493 13.5607C10.7113 13.3818 10.3148 13.1011 9.86292 12.7188L9.86217 12.7181C9.40425 12.3293 8.95892 11.9093 8.50384 11.4628L8.49967 11.4586L8.4955 11.4544C8.05103 11.0013 7.64209 10.5497 7.26073 10.109L7.25619 10.1038C6.87847 9.65734 6.58919 9.26175 6.40965 8.93259L6.383 8.88375L6.36549 8.83125C6.36549 8.83125 6.36335 8.82534 6.35252 8.79976C6.35161 8.79759 6.35063 8.79534 6.3496 8.79284C6.3392 8.76834 6.3228 8.72967 6.30646 8.68609L6.29396 8.65275L6.28533 8.61825C6.2584 8.51059 6.24167 8.40084 6.24167 8.27501C6.24167 7.99232 6.338 7.7225 6.553 7.50483L7.18712 6.84567L7.1914 6.8414C7.36308 6.66971 7.48247 6.51405 7.5559 6.38414L7.56088 6.37534L7.56613 6.3667C7.62929 6.26295 7.65 6.1742 7.65 6.10001C7.65 6.04646 7.63451 5.95602 7.58387 5.83787L7.57979 5.82835C7.52697 5.69924 7.44515 5.55041 7.3178 5.37353L7.31525 5.37L5.37777 2.63912C5.29648 2.52171 5.19525 2.4413 5.07143 2.38415L5.06285 2.38019C4.94425 2.32326 4.80415 2.29167 4.65834 2.29167ZM2.49132 1.99991C3.11795 1.38499 3.8505 1.04167 4.65834 1.04167C4.97765 1.04167 5.3026 1.10949 5.59951 1.25117C5.9063 1.39358 6.18591 1.61161 6.4033 1.92436L8.33359 4.645C8.50442 4.88255 8.63809 5.11497 8.73484 5.3503C8.83309 5.58092 8.9 5.83871 8.9 6.10001C8.9 6.4224 8.80609 6.73053 8.63917 7.00783C8.49734 7.25654 8.30356 7.4964 8.0797 7.72086L7.50574 8.31747C7.51155 8.3312 7.51935 8.34975 7.52778 8.37125C7.6525 8.58992 7.87335 8.89767 8.20825 9.29367C8.575 9.71742 8.964 10.1468 9.38367 10.5748C9.82692 11.0097 10.2468 11.4048 10.6707 11.7648C11.0715 12.1039 11.3838 12.3201 11.6108 12.4435C11.6292 12.4514 11.6461 12.4591 11.6598 12.4653L12.2346 11.8982C12.4625 11.6705 12.7068 11.4698 12.9677 11.3305C13.2402 11.1683 13.5373 11.075 13.8667 11.075C14.1166 11.075 14.3635 11.1283 14.6117 11.2298C14.8474 11.3263 15.0783 11.4591 15.3098 11.6165L15.315 11.6201L18.0758 13.5801C18.3713 13.7854 18.6028 14.0454 18.7471 14.3733L18.7513 14.383L18.7553 14.3929C18.8615 14.6583 18.9333 14.9459 18.9333 15.275C18.9333 15.6688 18.8456 16.0681 18.6652 16.4503C18.5733 16.6448 18.4656 16.8351 18.3388 17.02C18.2368 17.1688 18.1232 17.3132 17.9964 17.453C17.8662 17.5966 17.7304 17.7308 17.5892 17.8548C17.2297 18.1702 16.8369 18.4173 16.4054 18.5943C15.8268 18.8351 15.2038 18.9583 14.5417 18.9583C13.5928 18.9583 12.6011 18.7351 11.58 18.3C10.5738 17.8713 9.57459 17.2968 8.5905 16.5803L8.58967 16.5797C7.6056 15.8609 6.67354 15.0655 5.7852 14.1858L5.78091 14.1815C4.90123 13.2933 4.10565 12.361 3.39474 11.3845L3.39262 11.3817C2.68729 10.4011 2.11259 9.41084 1.69142 8.41934L1.69065 8.4175C1.26433 7.40505 1.04167 6.41418 1.04167 5.45001C1.04167 4.80987 1.15467 4.18944 1.38572 3.61119C1.62073 3.01461 1.98986 2.47421 2.49132 1.99991Z" fill="#18A4E1"/>
</svg>
