<svg width="18" height="18" viewBox="0 0 18 18" fill="none" xmlns="http://www.w3.org/2000/svg">
<path d="M8.37 17.73C7.65 17.01 1.8 10.98 1.8 7.2C1.8 3.24 5.04 0 9 0C12.96 0 16.2 3.24 16.2 7.2C16.2 10.98 10.35 17.01 9.63 17.73C9.27 18.09 8.73 18.09 8.37 17.73ZM9 1.8C6.03 1.8 3.6 4.23 3.6 7.2C3.6 9.45 7.02 13.68 9 15.75C10.98 13.68 14.4 9.45 14.4 7.2C14.4 4.23 11.97 1.8 9 1.8Z" fill="#18A4E1"/>
<path d="M9 9C9.99411 9 10.8 8.19411 10.8 7.2C10.8 6.20589 9.99411 5.4 9 5.4C8.00589 5.4 7.2 6.20589 7.2 7.2C7.2 8.19411 8.00589 9 9 9Z" fill="#18A4E1"/>
</svg>
