<svg width="28" height="28" viewBox="0 0 28 28" fill="none" xmlns="http://www.w3.org/2000/svg">
<g clip-path="url(#clip0_21_969)">
<path fill-rule="evenodd" clip-rule="evenodd" d="M15.3695 4.19628C16.1772 3.73883 17.1336 3.62098 18.0282 3.86865C18.4249 3.97847 18.7638 4.16978 19.0833 4.38586C19.3867 4.59108 19.7347 4.86277 20.1382 5.17766L20.197 5.22361C20.6004 5.5385 20.9485 5.8102 21.2213 6.05474C21.5084 6.31221 21.7763 6.59457 21.9792 6.9527C22.4366 7.76041 22.5544 8.71677 22.3068 9.61137C22.197 10.008 22.0056 10.347 21.7896 10.6665C21.5844 10.9699 21.3126 11.318 20.9976 11.7214L12.7112 22.3372C12.6902 22.3641 12.6695 22.3906 12.6491 22.4168C12.2601 22.9156 11.966 23.2926 11.6019 23.6024C11.2937 23.8645 10.9528 24.0855 10.5876 24.2597C10.1562 24.4655 9.69186 24.5799 9.07763 24.7314C9.04543 24.7393 9.01281 24.7473 8.97977 24.7555L6.50081 25.3674C6.32913 25.4099 6.13317 25.4584 5.9603 25.4849C5.76759 25.5145 5.46918 25.5414 5.1396 25.4359C4.7434 25.309 4.40535 25.0451 4.18608 24.6916C4.00369 24.3975 3.95728 24.1015 3.93923 23.9073C3.92304 23.7332 3.92246 23.5313 3.92196 23.3545C3.92193 23.3435 3.9219 23.3326 3.92187 23.3219L3.91385 20.8011C3.91374 20.767 3.91362 20.7334 3.9135 20.7003C3.91123 20.0677 3.90951 19.5894 4.00445 19.121C4.08481 18.7244 4.21638 18.34 4.39587 17.9775C4.60793 17.5491 4.90236 17.1723 5.29182 16.6738C5.31223 16.6476 5.33292 16.6212 5.35387 16.5943L13.6404 5.97842C13.9553 5.575 14.227 5.2269 14.4715 4.95414C14.729 4.66697 15.0114 4.3991 15.3695 4.19628ZM17.4056 6.11739C17.1074 6.03484 16.7887 6.07412 16.5194 6.2266C16.4737 6.2525 16.3869 6.31325 16.2089 6.51176C16.0239 6.7181 15.8011 7.00247 15.4568 7.44355L19.1354 10.315C19.4798 9.87395 19.7015 9.58879 19.8568 9.35925C20.0062 9.1384 20.044 9.03943 20.058 8.98879C20.1406 8.69059 20.1013 8.37181 19.9488 8.10257C19.9229 8.05684 19.8621 7.97003 19.6637 7.79206C19.4573 7.60706 19.173 7.38428 18.7319 7.03998C18.2907 6.69567 18.0056 6.47389 17.7761 6.31864C17.5553 6.16927 17.4562 6.13141 17.4056 6.11739ZM17.6997 12.1543L14.0211 9.28287L7.19319 18.03C6.71514 18.6424 6.58033 18.8242 6.48701 19.0127C6.39727 19.194 6.33147 19.3862 6.2913 19.5844C6.24952 19.7905 6.2447 20.0167 6.24718 20.7936L6.25427 23.025L8.42051 22.4902C9.17477 22.304 9.39303 22.2444 9.58287 22.1537C9.76546 22.0667 9.93593 21.9562 10.09 21.8251C10.2502 21.6888 10.3938 21.5139 10.8718 20.9015L17.6997 12.1543Z" fill="#18A4E1"/>
</g>
<defs>
<clipPath id="clip0_21_969">
<rect width="28" height="28" fill="white"/>
</clipPath>
</defs>
</svg>
